<?xml version="1.0" encoding="utf-8"?>
<!-- Generator: Adobe Illustrator 15.0.2, SVG Export Plug-In  -->
<!DOCTYPE svg PUBLIC "-//W3C//DTD SVG 1.1//EN" "http://www.w3.org/Graphics/SVG/1.1/DTD/svg11.dtd" [
	<!ENTITY ns_flows "http://ns.adobe.com/Flows/1.0/">
]>
<svg version="1.1"
	 xmlns="http://www.w3.org/2000/svg" xmlns:xlink="http://www.w3.org/1999/xlink" xmlns:a="http://ns.adobe.com/AdobeSVGViewerExtensions/3.0/"
	 x="0px" y="0px" width="953px" height="141px" viewBox="-11.107 -9.722 953 141" enable-background="new -11.107 -9.722 953 141"
	 xml:space="preserve">
<defs>
</defs>
<path fill="#174A7C" d="M361.278,47.632h-59.629v9.132h43.895c0.506,2.707,0.762,4.479,0.762,5.265
	c0,10.274-1.946,16.699-5.781,19.095c-3.875,2.425-14.21,3.652-30.718,3.652c-21.612,0-35.082-1.298-40.033-3.861
	c-4.896-2.53-7.377-9.482-7.377-20.669l-0.1-12.859l0.201-11.945c0-11.017,2.234-17.985,6.638-20.712
	c4.446-2.753,15.751-4.149,33.6-4.149c19.339,0,31.458,0.872,36.021,2.588c4.473,1.686,6.741,6.183,6.741,13.365v2.52h15.811v-3.708
	c0-10.06-3.491-16.639-10.374-19.554c-6.81-2.882-22.109-4.344-45.473-4.344c-23.311,0-39.044,2.232-46.765,6.633
	c-7.768,4.433-11.707,13.459-11.707,26.827l-0.101,7.988l0.101,13.261c0,15.903,3.543,26.291,10.531,30.878
	c6.951,4.559,22.773,6.872,47.032,6.872c25.663,0,41.773-1.954,47.886-5.813c6.153-3.885,9.273-14.099,9.273-30.353
	c0-4.199-0.136-7.517-0.407-9.863L361.278,47.632z"/>
<polygon fill="#174A7C" points="376.478,92.984 465.639,92.984 465.639,83.852 392.592,83.852 392.592,50.76 462.608,50.76 
	462.608,41.629 392.592,41.629 392.592,11.505 465.639,11.505 465.639,2.373 376.478,2.373 "/>
<path fill="#174A7C" d="M585.588,8.961c-6.553-4.984-23.062-7.513-49.068-7.513c-22.501,0-38.099,2.219-46.349,6.597
	c-8.312,4.41-12.525,12.739-12.525,24.749l-0.202,8.518v6.333c0,20.71,3.248,33.748,9.651,38.748
	c6.388,4.985,23.017,7.514,49.425,7.514c26.547,0,43.193-2.549,49.479-7.582c6.303-5.045,9.499-18.459,9.499-39.867
	C595.498,26.58,592.165,13.965,585.588,8.961z M498.309,15.264c3.636-3.107,16.457-4.684,38.112-4.684
	c18.856,0,30.982,1.344,36.039,3.994c5,2.62,7.53,8.907,7.53,18.692l0.102,8.507v5.873c0,18.434-1.837,29.351-5.459,32.447
	c-3.636,3.109-16.493,4.683-38.212,4.683c-21.655,0-34.477-1.573-38.112-4.683c-3.622-3.097-5.459-14.014-5.459-32.447
	C492.85,29.255,494.687,18.36,498.309,15.264z"/>
<polygon fill="#174A7C" points="707.407,2.373 601.777,2.373 601.777,12.362 646.738,12.362 646.738,92.984 662.853,92.984 
	662.853,12.362 707.407,12.362 "/>
<path fill="#174A7C" d="M764.33,2.373h-22.146l-50.829,90.611h17.106l10.606-19.066h69.488l10.71,19.066h16.907L764.41,2.513
	L764.33,2.373z M783.701,65.71h-59.883l29.743-54.175L783.701,65.71z"/>
<path fill="#174A7C" d="M915.864,45.471c11.306-2.775,17.034-9.165,17.034-19.003c0-9.868-2.681-16.432-7.965-19.505
	c-5.245-3.046-16.456-4.589-33.33-4.589h-61.302v90.611h67.868c14.269,0,24.433-1.969,30.213-5.854
	c5.812-3.906,8.761-10.753,8.761-20.351C937.144,55.087,929.984,47.921,915.864,45.471z M912.033,38.956
	c-3.683,1.993-12.086,3.002-24.978,3.002h-40.64V11.505h44.885c11.013,0,18.226,0.888,21.438,2.638
	c3.156,1.722,4.753,5.601,4.753,11.534C917.492,32.528,915.658,36.996,912.033,38.956z M846.416,51.089h39.833
	c16.312,0,26.434,0.913,30.086,2.71c3.584,1.768,5.402,6.667,5.402,14.562c0,6.326-1.804,10.52-5.362,12.457
	c-3.612,1.971-11.404,2.971-23.155,2.971l-14.045,0.063h-32.759V51.089z"/>
<path fill="#56A0D3" d="M0,2.334h22.76v10.422c3.892-4.28,8.222-7.475,12.973-9.588C40.493,1.057,45.675,0,51.297,0
	c5.67,0,10.789,1.391,15.348,4.168c4.564,2.779,8.234,6.838,11.018,12.173c3.615-5.335,8.048-9.394,13.307-12.173
	C96.229,1.391,101.97,0,108.201,0c6.447,0,12.124,1.5,17.015,4.502c4.899,3.002,8.415,6.92,10.561,11.757
	c2.142,4.835,3.21,12.7,3.21,23.594v53.191h-22.929V47.024c0-10.283-1.278-17.246-3.835-20.885
	c-2.556-3.642-6.392-5.461-11.506-5.461c-3.89,0-7.377,1.111-10.464,3.333c-3.083,2.224-5.377,5.294-6.878,9.213
	c-1.5,3.919-2.25,10.213-2.25,18.883v40.936H58.196V49.108c0-8.115-0.596-13.993-1.799-17.633c-1.196-3.642-2.995-6.351-5.385-8.13
	c-2.397-1.78-5.292-2.667-8.693-2.667c-3.792,0-7.233,1.125-10.323,3.376c-3.094,2.252-5.406,5.404-6.935,9.463
	c-1.536,4.057-2.301,10.449-2.301,19.177v40.35H0V2.334z"/>
<path fill="#56A0D3" d="M143.373,2.334h23.26l23.563,56.917L216.2,2.334h23.325l-56.813,123.896h-23.505l18.647-39.95L143.373,2.334
	z"/>
</svg>
